<svg width="30" height="30" viewBox="0 0 30 30" fill="none" xmlns="http://www.w3.org/2000/svg">
<path d="M18.7976 10.3152L18.9112 10.5564L19.1747 10.5965L26.7613 11.7511C26.7615 11.7511 26.7616 11.7511 26.7618 11.7512C26.9989 11.7884 27.1932 12.0297 27.1504 12.3202L27.1504 12.3202L27.1497 12.3255C27.1342 12.4387 27.0836 12.5401 27.0095 12.6164C27.0093 12.6165 27.0092 12.6167 27.009 12.6168L21.5198 18.2211L21.3426 18.402L21.3835 18.6518L22.6806 26.5667L22.6807 26.5671C22.729 26.8609 22.5381 27.1066 22.3052 27.1487L22.3044 27.1488C22.2109 27.1658 22.1136 27.15 22.0307 27.1038L22.0284 27.1026L15.2412 23.3658L15.0001 23.233L14.7589 23.3658L7.97168 27.1026L7.97089 27.103C7.89731 27.1437 7.81623 27.1611 7.7363 27.1551C7.65632 27.1491 7.57734 27.1197 7.50853 27.0674C7.4395 27.0149 7.383 26.9409 7.34844 26.8517C7.31383 26.7625 7.30349 26.6637 7.3194 26.5674L7.31951 26.5667L8.61658 18.6518L8.65753 18.402L8.48036 18.2211L2.99021 12.6159L2.99017 12.6159C2.90071 12.5246 2.84557 12.395 2.84379 12.2545C2.84202 12.1143 2.89364 11.9832 2.98075 11.8891C3.05353 11.8116 3.14343 11.7653 3.23597 11.7515L3.23723 11.7513L10.8254 10.5965L11.0889 10.5564L11.2025 10.3152L14.5935 3.11628C14.5937 3.11594 14.5938 3.1156 14.594 3.11526C14.7155 2.86223 14.9874 2.78398 15.1948 2.8912L15.1954 2.8915C15.2827 2.93648 15.3581 3.01305 15.4053 3.11348L15.4055 3.11391L18.7976 10.3152Z" fill="white" stroke="black"/>
</svg>
